<svg width="53" height="53" viewBox="0 0 53 53" fill="none" xmlns="http://www.w3.org/2000/svg">
<path d="M26.5004 15.8846C20.6259 15.8846 15.8848 20.6257 15.8848 26.5002C15.8848 32.3747 20.6259 37.1157 26.5004 37.1157C32.3749 37.1157 37.1159 32.3747 37.1159 26.5002C37.1159 20.6257 32.3749 15.8846 26.5004 15.8846ZM26.5004 33.3995C22.7013 33.3995 19.6011 30.2992 19.6011 26.5002C19.6011 22.7011 22.7013 19.6009 26.5004 19.6009C30.2994 19.6009 33.3997 22.7011 33.3997 26.5002C33.3997 30.2992 30.2994 33.3995 26.5004 33.3995ZM37.5507 12.9759C36.1791 12.9759 35.0715 14.0835 35.0715 15.4551C35.0715 16.8266 36.1791 17.9343 37.5507 17.9343C38.9222 17.9343 40.0299 16.8318 40.0299 15.4551C40.0303 15.1294 39.9664 14.8068 39.842 14.5058C39.7175 14.2048 39.5349 13.9314 39.3046 13.7011C39.0743 13.4708 38.8009 13.2882 38.4999 13.1637C38.1989 13.0393 37.8764 12.9754 37.5507 12.9759ZM47.1931 26.5002C47.1931 23.6431 47.219 20.812 47.0586 17.9601C46.8981 14.6476 46.1425 11.7078 43.7202 9.28552C41.2928 6.85808 38.3581 6.10759 35.0456 5.94714C32.1886 5.7867 29.3574 5.81257 26.5055 5.81257C23.6485 5.81257 20.8174 5.7867 17.9655 5.94714C14.653 6.10759 11.7132 6.86326 9.29089 9.28552C6.86345 11.713 6.11297 14.6476 5.95252 17.9601C5.79207 20.8172 5.81795 23.6483 5.81795 26.5002C5.81795 29.352 5.79207 32.1884 5.95252 35.0402C6.11297 38.3527 6.86863 41.2926 9.29089 43.7148C11.7183 46.1423 14.653 46.8927 17.9655 47.0532C20.8225 47.2136 23.6537 47.1878 26.5055 47.1878C29.3626 47.1878 32.1937 47.2136 35.0456 47.0532C38.3581 46.8927 41.2979 46.1371 43.7202 43.7148C46.1476 41.2874 46.8981 38.3527 47.0586 35.0402C47.2242 32.1884 47.1931 29.3572 47.1931 26.5002ZM42.6385 38.7047C42.2606 39.6467 41.8052 40.3506 41.0754 41.0752C40.3456 41.805 39.6469 42.2604 38.7049 42.6383C35.9824 43.72 29.5178 43.4767 26.5004 43.4767C23.4829 43.4767 17.0132 43.72 14.2907 42.6434C13.3487 42.2656 12.6448 41.8101 11.9202 41.0803C11.1904 40.3506 10.7349 39.6518 10.3571 38.7098C9.28054 35.9822 9.52381 29.5177 9.52381 26.5002C9.52381 23.4827 9.28054 17.013 10.3571 14.2905C10.7349 13.3485 11.1904 12.6446 11.9202 11.92C12.65 11.1954 13.3487 10.7347 14.2907 10.3569C17.0132 9.28035 23.4829 9.52361 26.5004 9.52361C29.5178 9.52361 35.9876 9.28035 38.71 10.3569C39.652 10.7347 40.3559 11.1902 41.0805 11.92C41.8103 12.6498 42.2658 13.3485 42.6436 14.2905C43.7202 17.013 43.4769 23.4827 43.4769 26.5002C43.4769 29.5177 43.7202 35.9822 42.6385 38.7047Z" fill="white" fill-opacity="0.9"/>
</svg>
