<svg width="33" height="33" viewBox="0 0 33 33" fill="none" xmlns="http://www.w3.org/2000/svg">
<path d="M16.5 2.0625C13.4926 2.06605 10.6093 3.26233 8.48269 5.38893C6.35609 7.51552 5.15981 10.3988 5.15626 13.4062C5.15266 15.8639 5.95546 18.255 7.44151 20.2125C7.44151 20.2125 7.75089 20.6198 7.80142 20.6786L16.5 30.9375L25.2027 20.6735C25.2481 20.6188 25.5585 20.2125 25.5585 20.2125L25.5595 20.2094C27.0449 18.2527 27.8473 15.8628 27.8438 13.4062C27.8402 10.3988 26.6439 7.51552 24.5173 5.38893C22.3907 3.26233 19.5075 2.06605 16.5 2.0625ZM16.5 17.5312C15.6842 17.5312 14.8866 17.2893 14.2083 16.8361C13.5299 16.3828 13.0012 15.7386 12.689 14.9848C12.3768 14.2311 12.2951 13.4017 12.4543 12.6015C12.6134 11.8013 13.0063 11.0663 13.5832 10.4894C14.1601 9.91254 14.8951 9.51967 15.6953 9.36051C16.4954 9.20135 17.3248 9.28304 18.0786 9.59525C18.8323 9.90746 19.4766 10.4362 19.9298 11.1145C20.3831 11.7929 20.625 12.5904 20.625 13.4062C20.6236 14.4998 20.1886 15.5483 19.4153 16.3216C18.642 17.0948 17.5936 17.5299 16.5 17.5312Z" fill="#FCDF5F"/>
</svg>
