<svg width="53" height="53" viewBox="0 0 53 53" fill="none" xmlns="http://www.w3.org/2000/svg">
<g clip-path="url(#clip0_102_2588)">
<path d="M53 26.6622C53 11.9348 41.1347 -0.00341797 26.5 -0.00341797C11.8588 -0.000105468 -0.0065918 11.9348 -0.0065918 26.6655C-0.0065918 39.9718 9.68578 51.0025 22.3528 53.0032V34.3704H15.6284V26.6655H22.3594V20.7858C22.3594 14.1045 26.3178 10.4144 32.3698 10.4144C35.2715 10.4144 38.3025 10.9345 38.3025 10.9345V17.4932H34.9602C31.6708 17.4932 30.644 19.5503 30.644 21.6603V26.6622H37.9911L36.8185 34.3671H30.6407V52.9999C43.3077 50.9991 53 39.9685 53 26.6622Z" fill="white" fill-opacity="0.9"/>
</g>
<defs>
<clipPath id="clip0_102_2588">
<rect width="53" height="53" fill="white"/>
</clipPath>
</defs>
</svg>
