<svg width="53" height="53" viewBox="0 0 53 53" fill="none" xmlns="http://www.w3.org/2000/svg">
<path fill-rule="evenodd" clip-rule="evenodd" d="M42.931 10.0515C40.7873 7.9067 38.2405 6.20712 35.4373 5.05058C32.634 3.89404 29.6297 3.30338 26.5973 3.31261C13.8711 3.31261 3.51125 13.6207 3.50607 26.2931C3.50044 30.3282 4.5641 34.2929 6.58877 37.7833L3.3125 49.6876L15.5532 46.4921C18.9415 48.3277 22.7344 49.2883 26.588 49.287H26.5973C39.3225 49.287 49.6813 38.9779 49.6875 26.3065C49.6952 23.2845 49.1018 20.291 47.9419 17.5004C46.782 14.7098 45.0786 12.1777 42.931 10.0515ZM26.5973 45.4083H26.589C23.1537 45.4093 19.7809 44.4899 16.8213 42.7459L16.1205 42.3318L8.8568 44.2282L10.7956 37.1798L10.3391 36.4552C8.41829 33.4141 7.40059 29.89 7.40447 26.2931C7.40447 15.7624 16.018 7.19444 26.6046 7.19444C31.683 7.18537 36.5571 9.19388 40.1548 12.7782C43.7526 16.3625 45.7792 21.2291 45.7891 26.3076C45.785 36.8392 37.1756 45.4083 26.5973 45.4083ZM37.1238 31.1034C36.5472 30.8157 33.7078 29.4265 33.1819 29.235C32.6561 29.0435 32.2679 28.9472 31.8838 29.5228C31.4998 30.0983 30.3932 31.386 30.0568 31.7742C29.7204 32.1624 29.3839 32.2049 28.8074 31.9171C28.2308 31.6293 26.3706 31.0237 24.1668 29.0673C22.4515 27.5446 21.2942 25.6647 20.9578 25.0902C20.6213 24.5157 20.9215 24.2041 21.2104 23.9184C21.4702 23.6607 21.7869 23.2476 22.0757 22.9123C22.3645 22.5769 22.4608 22.3367 22.6523 21.9537C22.8438 21.5707 22.7486 21.2353 22.6047 20.9486C22.4608 20.6618 21.3066 17.8348 20.8263 16.6848C20.3574 15.5647 19.8822 15.7169 19.5282 15.6993C19.1918 15.6827 18.8036 15.6786 18.4216 15.6786C18.1296 15.6862 17.8423 15.7539 17.5777 15.8775C17.313 16.0011 17.0767 16.1779 16.8834 16.397C16.3544 16.9725 14.8638 18.3638 14.8638 21.1877C14.8638 24.0116 16.9341 26.7444 17.2198 27.1274C17.5055 27.5104 21.288 33.3104 27.0755 35.7979C28.1502 36.2581 29.2483 36.6617 30.3653 37.0069C31.7472 37.4438 33.0049 37.3827 33.9987 37.2347C35.1073 37.0701 37.4147 35.8455 37.894 34.5039C38.3732 33.1624 38.3743 32.0134 38.2304 31.7742C38.0865 31.5351 37.7014 31.3902 37.1238 31.1034Z" fill="white" fill-opacity="0.9"/>
</svg>
