<svg width="50" height="50" viewBox="0 0 50 50" fill="none" xmlns="http://www.w3.org/2000/svg">
<path d="M33.3332 8.33333H10.4165C8.7589 8.33333 7.16919 8.99181 5.99709 10.1639C4.82498 11.336 4.1665 12.9257 4.1665 14.5833V35.4167C4.1665 37.0743 4.82498 38.664 5.99709 39.8361C7.16919 41.0082 8.7589 41.6667 10.4165 41.6667H33.3332M41.6665 6.25H37.4998C36.3948 6.25 35.335 6.68899 34.5536 7.47039C33.7722 8.25179 33.3332 9.3116 33.3332 10.4167V39.5833C33.3332 40.6884 33.7722 41.7482 34.5536 42.5296C35.335 43.311 36.3948 43.75 37.4998 43.75H41.6665C42.7716 43.75 43.8314 43.311 44.6128 42.5296C45.3942 41.7482 45.8332 40.6884 45.8332 39.5833V10.4167C45.8332 9.3116 45.3942 8.25179 44.6128 7.47039C43.8314 6.68899 42.7716 6.25 41.6665 6.25Z" stroke="#F8F8F8" stroke-width="4.16667" stroke-linecap="round" stroke-linejoin="round"/>
<path d="M25 29.1665V29.1873M18.75 29.1665V29.1873M12.5 29.1665V29.1873M25 35.4165V35.4373M18.75 35.4165V35.4373M12.5 35.4165V35.4373M25 16.6665H12.5V22.9165H25V16.6665Z" stroke="#F8F8F8" stroke-width="4.16667" stroke-linecap="round" stroke-linejoin="round"/>
</svg>
