<svg width="38" height="42" viewBox="0 0 38 42" fill="none" xmlns="http://www.w3.org/2000/svg">
<path d="M7.861 18.029C10.861 24.5787 15.6943 29.9481 21.5902 33.2808L26.1735 28.1891C26.7568 27.5411 27.5693 27.356 28.2985 27.6105C30.6318 28.4669 33.1318 28.9297 35.736 28.9297C36.2885 28.9297 36.8184 29.1736 37.2091 29.6076C37.5998 30.0416 37.8193 30.6303 37.8193 31.2441V39.3445C37.8193 39.9583 37.5998 40.5469 37.2091 40.981C36.8184 41.415 36.2885 41.6588 35.736 41.6588C26.3429 41.6588 17.3346 37.5136 10.6926 30.1351C4.05072 22.7566 0.319336 12.7492 0.319336 2.31438C0.319336 1.70057 0.538829 1.1119 0.92953 0.677866C1.32023 0.243836 1.85013 0 2.40267 0H9.69434C10.2469 0 10.7768 0.243836 11.1675 0.677866C11.5582 1.1119 11.7777 1.70057 11.7777 2.31438C11.7777 5.20735 12.1943 7.98461 12.9652 10.5767C13.1943 11.3867 13.0277 12.2894 12.4443 12.9374L7.861 18.029Z" fill="white" fill-opacity="0.9"/>
</svg>
