<svg width="35" height="49" viewBox="0 0 35 49" fill="none" xmlns="http://www.w3.org/2000/svg">
<path d="M17.5127 0C12.956 0.00597192 8.58737 2.01953 5.36525 5.59899C2.14314 9.17845 0.330589 14.0315 0.325214 19.0936C0.319756 23.2304 1.53612 27.2549 3.78771 30.5498C3.78771 30.5498 4.25646 31.2354 4.33303 31.3344L17.5127 48.602L30.6986 31.3257C30.7674 31.2337 31.2377 30.5498 31.2377 30.5498L31.2393 30.5446C33.4897 27.2511 34.7056 23.2285 34.7002 19.0936C34.6948 14.0315 32.8823 9.17845 29.6602 5.59899C26.4381 2.01953 22.0695 0.00597192 17.5127 0ZM17.5127 26.0368C16.2766 26.0368 15.0682 25.6296 14.0404 24.8666C13.0126 24.1037 12.2115 23.0194 11.7385 21.7507C11.2654 20.482 11.1416 19.0859 11.3828 17.7391C11.624 16.3923 12.2192 15.1551 13.0933 14.1841C13.9674 13.2131 15.081 12.5518 16.2934 12.2839C17.5058 12.016 18.7624 12.1535 19.9045 12.679C21.0465 13.2045 22.0226 14.0944 22.7094 15.2362C23.3962 16.378 23.7627 17.7204 23.7627 19.0936C23.7606 20.9344 23.1015 22.699 21.9298 24.0006C20.7582 25.3022 19.1697 26.0345 17.5127 26.0368Z" fill="white" fill-opacity="0.9"/>
</svg>
