<svg width="18" height="17" viewBox="0 0 18 17" fill="none" xmlns="http://www.w3.org/2000/svg">
<path d="M16.3821 0.927833L1.1293 0.927833C0.974867 0.928409 0.823496 0.979097 0.691475 1.07444C0.559452 1.16979 0.451778 1.30617 0.380045 1.46893C0.308311 1.63168 0.275232 1.81464 0.284369 1.9981C0.293507 2.18156 0.344515 2.35859 0.431902 2.51011L8.05831 15.6202C8.37438 16.1637 9.13533 16.1637 9.45225 15.6202L17.0787 2.51011C17.1669 2.3589 17.2187 2.18179 17.2283 1.99802C17.238 1.81425 17.2051 1.63086 17.1333 1.46776C17.0615 1.30466 16.9535 1.1681 16.8211 1.07291C16.6887 0.977717 16.5368 0.927542 16.3821 0.927833Z" fill="white"/>
</svg>
