<svg width="25" height="17" viewBox="0 0 25 17" fill="none" xmlns="http://www.w3.org/2000/svg">
<path d="M23.2641 0.927833L1.86576 0.927833C1.64911 0.928409 1.43675 0.979097 1.25153 1.07444C1.06632 1.16979 0.915262 1.30617 0.814625 1.46893C0.713989 1.63168 0.667582 1.81464 0.680401 1.9981C0.693218 2.18156 0.764778 2.35859 0.887375 2.51011L11.5866 15.6202C12.03 16.1637 13.0975 16.1637 13.5421 15.6202L24.2413 2.51011C24.3652 2.3589 24.4378 2.18179 24.4513 1.99802C24.4648 1.81425 24.4187 1.63086 24.318 1.46776C24.2173 1.30466 24.0658 1.1681 23.88 1.07291C23.6942 0.977717 23.4812 0.927542 23.2641 0.927833Z" fill="white"/>
</svg>
