<svg width="44" height="42" viewBox="0 0 44 42" fill="none" xmlns="http://www.w3.org/2000/svg">
<path d="M35.8999 22.8661L23.2541 36.8912V41.6588H27.5457L40.1707 27.6105M43.4624 22.1718L40.7957 19.2094C40.6955 19.0864 40.5734 18.9879 40.4371 18.9202C40.3008 18.8525 40.1534 18.817 40.0041 18.8159C39.6916 18.8391 39.3999 18.9548 39.1916 19.2094L37.1082 21.5237L41.3791 26.1525L43.4624 23.8381C43.8582 23.3752 43.8582 22.6346 43.4624 22.1718ZM19.0874 32.4013H4.50407V9.25752L21.1707 20.8294L37.8374 9.25752V13.8863H42.0041V4.62876C42.0041 2.08294 40.1291 0 37.8374 0H4.50407C2.2124 0 0.337402 2.08294 0.337402 4.62876V32.4013C0.337402 34.9471 2.2124 37.0301 4.50407 37.0301H19.0874V32.4013ZM37.8374 4.62876L21.1707 16.2007L4.50407 4.62876H37.8374Z" fill="white" fill-opacity="0.9"/>
</svg>
