<svg width="18" height="17" viewBox="0 0 18 17" fill="none" xmlns="http://www.w3.org/2000/svg">
<path d="M16.6048 0.927833L1.35195 0.927833C1.19752 0.928409 1.04615 0.979097 0.914131 1.07444C0.782108 1.16979 0.674435 1.30617 0.602701 1.46893C0.530968 1.63168 0.497889 1.81464 0.507025 1.9981C0.516163 2.18156 0.567171 2.35859 0.654558 2.51011L8.28097 15.6202C8.59704 16.1637 9.35799 16.1637 9.67491 15.6202L17.3013 2.51011C17.3896 2.3589 17.4414 2.18179 17.451 1.99802C17.4606 1.81425 17.4278 1.63086 17.356 1.46776C17.2842 1.30466 17.1762 1.1681 17.0437 1.07291C16.9113 0.977717 16.7595 0.927542 16.6048 0.927833Z" fill="white"/>
</svg>
