<svg width="25" height="17" viewBox="0 0 25 17" fill="none" xmlns="http://www.w3.org/2000/svg">
<path d="M23.4897 0.927833L2.09134 0.927833C1.87469 0.928409 1.66233 0.979097 1.47712 1.07444C1.2919 1.16979 1.14085 1.30617 1.04021 1.46893C0.939575 1.63168 0.893167 1.81464 0.905987 1.9981C0.918804 2.18156 0.990364 2.35859 1.11296 2.51011L11.8121 15.6202C12.2556 16.1637 13.3231 16.1637 13.7677 15.6202L24.4669 2.51011C24.5908 2.3589 24.6634 2.18179 24.6769 1.99802C24.6904 1.81425 24.6443 1.63086 24.5436 1.46776C24.4428 1.30466 24.2914 1.1681 24.1056 1.07291C23.9198 0.977717 23.7068 0.927542 23.4897 0.927833Z" fill="white"/>
</svg>
