<svg width="35" height="49" viewBox="0 0 35 49" fill="none" xmlns="http://www.w3.org/2000/svg">
<path d="M17.5069 0C12.9501 0.00597192 8.58151 2.01953 5.35939 5.59899C2.13728 9.17845 0.32473 14.0315 0.319354 19.0936C0.313897 23.2304 1.53026 27.2549 3.78185 30.5498C3.78185 30.5498 4.2506 31.2354 4.32717 31.3344L17.5069 48.602L30.6928 31.3257C30.7615 31.2337 31.2319 30.5498 31.2319 30.5498L31.2334 30.5446C33.4839 27.2511 34.6997 23.2285 34.6944 19.0936C34.689 14.0315 32.8764 9.17845 29.6543 5.59899C26.4322 2.01953 22.0636 0.00597192 17.5069 0ZM17.5069 26.0368C16.2707 26.0368 15.0623 25.6296 14.0345 24.8666C13.0067 24.1037 12.2057 23.0194 11.7326 21.7507C11.2596 20.482 11.1358 19.0859 11.3769 17.7391C11.6181 16.3923 12.2134 15.1551 13.0874 14.1841C13.9615 13.2131 15.0752 12.5518 16.2875 12.2839C17.4999 12.016 18.7566 12.1535 19.8986 12.679C21.0407 13.2045 22.0168 14.0944 22.7035 15.2362C23.3903 16.378 23.7569 17.7204 23.7569 19.0936C23.7548 20.9344 23.0956 22.699 21.924 24.0006C20.7523 25.3022 19.1638 26.0345 17.5069 26.0368Z" fill="white" fill-opacity="0.9"/>
</svg>
