<svg width="38" height="42" viewBox="0 0 38 42" fill="none" xmlns="http://www.w3.org/2000/svg">
<path d="M7.86686 18.029C10.8669 24.5787 15.7002 29.9481 21.596 33.2808L26.1794 28.1891C26.7627 27.5411 27.5752 27.356 28.3044 27.6105C30.6377 28.4669 33.1377 28.9297 35.7419 28.9297C36.2944 28.9297 36.8243 29.1736 37.215 29.6076C37.6057 30.0416 37.8252 30.6303 37.8252 31.2441V39.3445C37.8252 39.9583 37.6057 40.5469 37.215 40.981C36.8243 41.415 36.2944 41.6588 35.7419 41.6588C26.3488 41.6588 17.3404 37.5136 10.6985 30.1351C4.05658 22.7566 0.325195 12.7492 0.325195 2.31438C0.325195 1.70057 0.544689 1.1119 0.935389 0.677866C1.32609 0.243836 1.85599 0 2.40853 0H9.7002C10.2527 0 10.7826 0.243836 11.1733 0.677866C11.564 1.1119 11.7835 1.70057 11.7835 2.31438C11.7835 5.20735 12.2002 7.98461 12.971 10.5767C13.2002 11.3867 13.0335 12.2894 12.4502 12.9374L7.86686 18.029Z" fill="white" fill-opacity="0.9"/>
</svg>
